<svg xmlns="http://www.w3.org/2000/svg" width="805" height="600"><rect width="805" height="600" x="0" y="0" fill="#FFFFFF" id="background"/><g transform="translate(10,10)" id="visualization"><g><rect x="0" y="0" height="125.5" width="5" fill="black"><title>Jean: 1</title></rect><rect x="0" y="151.5" height="125.5" width="5" fill="black"><title>Marie: 1</title></rect><rect x="0" y="303" height="125.5" width="5" fill="black"><title>Hugue: 1</title></rect><rect x="390" y="13" height="125.5" width="5" fill="black"><title>Pulp Fiction: 1</title></rect><rect x="0" y="454.5" height="125.5" width="5" fill="black"><title>Marine: 1</title></rect><rect x="390" y="164.5" height="125.5" width="5" fill="black"><title>L'étranger: 1</title></rect><rect x="780" y="0" height="125.5" width="5" fill="black"><title>26: 1</title></rect><rect x="780" y="151.5" height="125.5" width="5" fill="black"><title>22: 1</title></rect><rect x="780" y="303" height="125.5" width="5" fill="black"><title>24: 1</title></rect><rect x="780" y="454.5" height="125.5" width="5" fill="black"><title>18: 1</title></rect><rect x="390" y="316" height="251" width="5" fill="black"><title>Matrix: 2</title></rect></g><g fill="none" stroke-opacity="1"><g style="mix-blend-mode: multiply;"><path d="M5,62.75C197.5,62.75,197.5,378.75,390,378.75" stroke="#bee5a0" stroke-width="125.5"/><title>Jean → Matrix: 1</title></g><g style="mix-blend-mode: multiply;"><path d="M5,214.25C197.5,214.25,197.5,504.25,390,504.25" stroke="#56adae" stroke-width="125.5"/><title>Marie → Matrix: 1</title></g><g style="mix-blend-mode: multiply;"><path d="M5,365.75C197.5,365.75,197.5,75.75,390,75.75" stroke="#fbf8b0" stroke-width="125.5"/><title>Hugue → Pulp Fiction: 1</title></g><g style="mix-blend-mode: multiply;"><path d="M5,517.25C197.5,517.25,197.5,227.25,390,227.25" stroke="#dddce6" stroke-width="125.5"/><title>Marine → L'étranger: 1</title></g><g style="mix-blend-mode: multiply;"><path d="M395,378.75C587.5,378.75,587.5,62.75,780,62.75" stroke="#74c60e" stroke-width="125.5"/><title>Matrix → 26: 1</title></g><g style="mix-blend-mode: multiply;"><path d="M395,504.25C587.5,504.25,587.5,214.25,780,214.25" stroke="#74c60e" stroke-width="125.5"/><title>Matrix → 22: 1</title></g><g style="mix-blend-mode: multiply;"><path d="M395,75.75C587.5,75.75,587.5,365.75,780,365.75" stroke="#fdbe70" stroke-width="125.5"/><title>Pulp Fiction → 24: 1</title></g><g style="mix-blend-mode: multiply;"><path d="M395,227.25C587.5,227.25,587.5,517.25,780,517.25" stroke="#d4cdd0" stroke-width="125.5"/><title>L'étranger → 18: 1</title></g></g><g><text x="9" y="62.75" text-anchor="start" transform="translate(0,-5)"><tspan alignment-baseline="middle" x="9" style="font-family: Arial, sans-serif; font-size: 10px; fill: black; font-weight: bold;">Jean</tspan><tspan alignment-baseline="middle" x="9" dy="12" style="font-family: Arial, sans-serif; font-size: 10px; fill: black; font-weight: normal;">1</tspan></text><text x="9" y="214.25" text-anchor="start" transform="translate(0,-5)"><tspan alignment-baseline="middle" x="9" style="font-family: Arial, sans-serif; font-size: 10px; fill: black; font-weight: bold;">Marie</tspan><tspan alignment-baseline="middle" x="9" dy="12" style="font-family: Arial, sans-serif; font-size: 10px; fill: black; font-weight: normal;">1</tspan></text><text x="9" y="365.75" text-anchor="start" transform="translate(0,-5)"><tspan alignment-baseline="middle" x="9" style="font-family: Arial, sans-serif; font-size: 10px; fill: black; font-weight: bold;">Hugue</tspan><tspan alignment-baseline="middle" x="9" dy="12" style="font-family: Arial, sans-serif; font-size: 10px; fill: black; font-weight: normal;">1</tspan></text><text x="399" y="75.75" text-anchor="start" transform="translate(0,-5)"><tspan alignment-baseline="middle" x="399" style="font-family: Arial, sans-serif; font-size: 10px; fill: black; font-weight: bold;">Pulp Fiction</tspan><tspan alignment-baseline="middle" x="399" dy="12" style="font-family: Arial, sans-serif; font-size: 10px; fill: black; font-weight: normal;">1</tspan></text><text x="9" y="517.25" text-anchor="start" transform="translate(0,-5)"><tspan alignment-baseline="middle" x="9" style="font-family: Arial, sans-serif; font-size: 10px; fill: black; font-weight: bold;">Marine</tspan><tspan alignment-baseline="middle" x="9" dy="12" style="font-family: Arial, sans-serif; font-size: 10px; fill: black; font-weight: normal;">1</tspan></text><text x="399" y="227.25" text-anchor="start" transform="translate(0,-5)"><tspan alignment-baseline="middle" x="399" style="font-family: Arial, sans-serif; font-size: 10px; fill: black; font-weight: bold;">L'étranger</tspan><tspan alignment-baseline="middle" x="399" dy="12" style="font-family: Arial, sans-serif; font-size: 10px; fill: black; font-weight: normal;">1</tspan></text><text x="776" y="62.75" text-anchor="end" transform="translate(0,-5)"><tspan alignment-baseline="middle" x="776" style="font-family: Arial, sans-serif; font-size: 10px; fill: black; font-weight: bold;">26</tspan><tspan alignment-baseline="middle" x="776" dy="12" style="font-family: Arial, sans-serif; font-size: 10px; fill: black; font-weight: normal;">1</tspan></text><text x="776" y="214.25" text-anchor="end" transform="translate(0,-5)"><tspan alignment-baseline="middle" x="776" style="font-family: Arial, sans-serif; font-size: 10px; fill: black; font-weight: bold;">22</tspan><tspan alignment-baseline="middle" x="776" dy="12" style="font-family: Arial, sans-serif; font-size: 10px; fill: black; font-weight: normal;">1</tspan></text><text x="776" y="365.75" text-anchor="end" transform="translate(0,-5)"><tspan alignment-baseline="middle" x="776" style="font-family: Arial, sans-serif; font-size: 10px; fill: black; font-weight: bold;">24</tspan><tspan alignment-baseline="middle" x="776" dy="12" style="font-family: Arial, sans-serif; font-size: 10px; fill: black; font-weight: normal;">1</tspan></text><text x="776" y="517.25" text-anchor="end" transform="translate(0,-5)"><tspan alignment-baseline="middle" x="776" style="font-family: Arial, sans-serif; font-size: 10px; fill: black; font-weight: bold;">18</tspan><tspan alignment-baseline="middle" x="776" dy="12" style="font-family: Arial, sans-serif; font-size: 10px; fill: black; font-weight: normal;">1</tspan></text><text x="399" y="441.5" text-anchor="start" transform="translate(0,-5)"><tspan alignment-baseline="middle" x="399" style="font-family: Arial, sans-serif; font-size: 10px; fill: black; font-weight: bold;">Matrix</tspan><tspan alignment-baseline="middle" x="399" dy="12" style="font-family: Arial, sans-serif; font-size: 10px; fill: black; font-weight: normal;">2</tspan></text></g><g><text x="2.5" y="-4" text-anchor="middle" style="font-family: Arial, sans-serif; font-size: 12px; fill: rgb(123, 123, 123); font-weight: bold;">prénom</text><text x="392.5" y="9" text-anchor="middle" style="font-family: Arial, sans-serif; font-size: 12px; fill: rgb(123, 123, 123); font-weight: bold;">film_favoris</text><text x="782.5" y="-4" text-anchor="middle" style="font-family: Arial, sans-serif; font-size: 12px; fill: rgb(123, 123, 123); font-weight: bold;">age</text></g></g></svg>